HIERARCHY
ROOT Hips
{
	OFFSET -0.179506 -22.333345 2.821913
	CHANNELS 6 Xposition Yposition Zposition Zrotation Yrotation Xrotation 
	JOINT LeftUpLeg
	{
		OFFSET 6.951974 -9.140623 -0.681533
		CHANNELS 3 Zrotation Yrotation Xrotation
		JOINT LeftLeg
		{
			OFFSET 3.427654 -37.519855 -0.449580
			CHANNELS 3 Zrotation Yrotation Xrotation
			JOINT LeftFoot
			{
				OFFSET -1.359570 -39.796059 -4.369333
				CHANNELS 3 Zrotation Yrotation Xrotation
				JOINT LeftToe
				{
					OFFSET 2.635814 -5.579078 11.928840
					CHANNELS 3 Zrotation Yrotation Xrotation
					End Site
					{
						OFFSET 0.000000 0.000000 0.000000
					}
				}
			}
		}
	}
	JOINT RightUpLeg
	{
		OFFSET -6.767048 -9.052170 -0.431982
		CHANNELS 3 Zrotation Yrotation Xrotation
		JOINT RightLeg
		{
			OFFSET -3.829005 -38.256897 -0.885003
			CHANNELS 3 Zrotation Yrotation Xrotation
			JOINT RightFoot
			{
				OFFSET 1.577377 -39.841461 -4.231180
				CHANNELS 3 Zrotation Yrotation Xrotation
				JOINT RightToe
				{
					OFFSET -2.537174 -4.814398 12.334795
					CHANNELS 3 Zrotation Yrotation Xrotation
					End Site
					{
						OFFSET 0.000000 0.000000 0.000000
					}
				}
			}
		}
	}
	JOINT Spine
	{
		OFFSET -0.253288 10.896323 -2.669631
		CHANNELS 3 Zrotation Yrotation Xrotation
		JOINT Spine1
		{
			OFFSET 0.548704 13.518043 0.109247
			CHANNELS 3 Zrotation Yrotation Xrotation
			JOINT Spine2
			{
				OFFSET 0.145701 5.292222 2.542457
				CHANNELS 3 Zrotation Yrotation Xrotation
				JOINT Neck
				{
					OFFSET -0.277840 21.387037 -4.285703
					CHANNELS 3 Zrotation Yrotation Xrotation
					JOINT Head
					{
						OFFSET 0.515184 6.496960 5.134897
						CHANNELS 3 Zrotation Yrotation Xrotation
						End Site
						{
							OFFSET 0.000000 0.000000 0.000000
						}
					}
				}
				JOINT LeftShoulder
				{
					OFFSET 7.884473 12.174932 -3.408961
					CHANNELS 3 Zrotation Yrotation Xrotation
					JOINT LeftArm
					{
						OFFSET 9.097692 3.046888 -0.886815
						CHANNELS 3 Zrotation Yrotation Xrotation
						JOINT LeftForeArm
						{
							OFFSET 25.961220 -1.277207 -2.745643
							CHANNELS 3 Zrotation Yrotation Xrotation
							JOINT LeftHand
							{
								OFFSET 24.923361 0.898606 -0.117091
								CHANNELS 3 Zrotation Yrotation Xrotation
								End Site
								{
									OFFSET 0.000000 0.000000 0.000000
								}
							}
						}
					}
				}
				JOINT RightShoulder
				{
					OFFSET -8.175920 11.883285 -3.861528
					CHANNELS 3 Zrotation Yrotation Xrotation
					JOINT RightArm
					{
						OFFSET -9.601238 3.255117 -0.914307
						CHANNELS 3 Zrotation Yrotation Xrotation
						JOINT RightForeArm
						{
							OFFSET -25.374195 -1.332924 -2.140099
							CHANNELS 3 Zrotation Yrotation Xrotation
							JOINT RightHand
							{
								OFFSET -25.529810 0.777228 -0.555919
								CHANNELS 3 Zrotation Yrotation Xrotation
								End Site
								{
									OFFSET 0.000000 0.000000 0.000000
								}
							}
						}
					}
				}
			}
		}
	}
}
MOTION
Frames: 12
Frame Time: 0.033333
-38.083618 67.774788 90.472076 -97.395927 -3.611743 85.154373 12.126895 9.062198 -1.991617 -5.100002 3.350184 26.939595 1.451424 15.521194 -11.846653 nan nan nan -10.169884 -9.409041 -4.971548 1.912631 -11.032996 25.887867 0.340684 -11.580913 -18.045462 nan nan nan -2.438297 1.922317 4.447010 3.987067 -4.415708 16.221392 1.348019 -0.533492 -5.343812 3.121950 10.957307 11.263483 -4.544823 10.599831 0.777538 -27.347485 3.243985 2.180402 -52.176973 -2.603627 11.870644 11.531385 -31.259940 -4.607653 -6.058146 -15.781618 -1.542106 24.904254 1.899687 2.952466 48.049822 0.473939 6.342093 -20.191488 36.411608 -14.638922 3.445754 15.329170 0.055290 
-38.022236 67.777779 90.457909 -96.816316 -3.669689 85.285338 12.050620 8.939040 -2.250764 -5.233104 3.054668 26.768466 1.472552 15.389471 -11.773756 nan nan nan -10.250031 -9.294542 -5.196517 1.865814 -10.893437 26.197771 0.270665 -11.476069 -18.169820 nan nan nan -2.356814 1.924176 4.399684 3.892519 -4.401449 16.263398 1.294450 -0.508777 -5.373280 3.254625 12.512900 11.317947 -4.729564 12.063863 1.112590 -27.281782 3.283434 2.150319 -52.228016 -2.582931 11.855398 11.551160 -31.520138 -4.560213 -5.873397 -15.685070 -1.812591 24.881353 1.769077 3.153100 48.176299 0.765598 6.476735 -20.156205 36.524959 -14.532101 3.294014 15.057721 0.092793 
-37.952446 67.771233 90.435593 -96.259243 -3.750763 85.433617 11.933747 8.745946 -2.570167 -5.331888 2.834963 26.699097 1.560990 15.094810 -11.377270 nan nan nan -10.392337 -9.213733 -5.424655 1.855651 -10.734624 26.505697 0.245604 -11.258946 -18.241060 nan nan nan -2.252001 1.919999 4.493860 3.750530 -4.361611 16.044025 1.240389 -0.453624 -5.339178 3.325385 14.072718 11.398815 -4.861691 13.434985 1.368428 -27.222394 3.320243 2.021136 -52.289941 -2.388470 11.982981 11.646948 -31.713859 -4.438359 -5.538743 -15.999975 -2.249957 24.863431 1.647562 3.263593 48.349800 0.957731 6.691163 -20.301331 36.620348 -14.688149 3.286324 14.972457 -0.306168 
-37.894440 67.772530 90.422142 -95.664756 -3.823689 85.475281 11.828324 8.553562 -2.800602 -5.360081 2.643710 26.696224 1.827799 14.625081 -10.727451 nan nan nan -10.581732 -9.235519 -5.397881 1.830018 -10.658794 26.602772 0.226774 -10.858088 -18.261816 nan nan nan -2.207182 1.995844 4.528700 3.648426 -4.302834 16.119069 1.287722 -0.477608 -5.351503 3.389774 15.379755 11.514049 -5.094885 14.465404 1.393707 -27.242117 3.214210 1.911311 -52.339833 -2.210166 11.942296 11.787865 -31.948089 -4.617535 -5.567700 -16.191113 -1.991247 24.847831 1.696452 3.340770 48.427311 1.064167 6.678819 -20.444657 36.762657 -15.263662 3.710194 15.003342 -0.587343 
-37.843891 67.777725 90.412163 -94.999320 -3.846083 85.531549 11.786937 8.403704 -3.083867 -5.381363 2.393673 26.654678 1.916906 14.284302 -10.457609 nan nan nan -10.689202 -9.177906 -5.258165 1.813891 -10.520421 26.469353 0.345524 -10.548579 -18.157830 nan nan nan -2.162289 2.073595 4.494291 3.627432 -4.310726 16.283355 1.347096 -0.474429 -5.431426 3.284397 16.505317 11.601176 -5.261974 15.560393 1.506588 -27.306791 3.103191 1.870178 -52.359887 -2.158364 11.956231 11.742924 -32.089350 -4.431533 -5.396366 -16.242866 -2.060607 24.788820 1.615267 3.533113 48.416977 1.183113 6.525827 -20.252064 37.069845 -15.231836 3.747120 15.174505 -0.167067 
-37.811363 67.775307 90.421600 -94.329680 -3.831445 85.499557 11.786388 8.269710 -3.153476 -5.524576 1.849064 26.403027 1.818207 14.113656 -10.771936 nan nan nan -10.754981 -9.031091 -4.970698 1.868881 -10.178175 26.305310 0.578541 -10.479938 -17.871890 nan nan nan -2.049614 2.124582 4.612668 3.635098 -4.311786 16.324571 1.329600 -0.484703 -5.468776 3.135125 17.615647 11.716021 -5.378215 16.727335 1.458129 -27.316934 3.143742 1.802096 -52.383421 -2.273784 12.079588 11.585022 -32.116122 -3.849267 -5.227124 -16.281562 -2.608336 24.738777 1.451837 3.697535 48.490823 1.335512 6.627015 -20.159031 37.288775 -14.618070 3.591740 15.249899 0.176818 
-37.763088 67.768326 90.432541 -93.607589 -3.807477 85.485663 11.797380 8.069295 -3.230094 -5.754862 1.253151 26.075900 1.623543 13.944481 -11.367990 nan nan nan -10.806834 -8.879417 -4.731345 1.954666 -9.807530 26.182690 0.823107 -10.353422 -17.867532 nan nan nan -1.930686 2.159944 4.677042 3.627192 -4.378095 16.414046 1.295294 -0.480093 -5.487048 3.019914 18.823866 11.809049 -5.462689 17.838763 1.410288 -27.302861 3.096069 1.809265 -52.445685 -2.400765 12.105562 11.561609 -32.115569 -3.384943 -5.210770 -16.459232 -2.920366 24.688218 1.420088 3.732576 48.653954 1.449040 6.667195 -20.149162 37.349577 -14.350250 3.733742 15.413642 0.322991 
-37.684605 67.768753 90.421822 -92.890778 -3.819097 85.580101 11.754061 7.839721 -3.551642 -5.881347 0.867332 25.924684 1.541615 13.892474 -11.665656 nan nan nan -10.878904 -8.747501 -4.660767 2.020410 -9.437912 26.094431 0.924127 -10.119536 -18.070981 nan nan nan -1.825441 2.152782 4.685586 3.533846 -4.468108 16.322514 1.232513 -0.351274 -5.376487 2.896001 19.935972 11.823447 -5.371986 18.882042 1.579775 -27.304641 2.961103 1.826176 -52.479372 -2.380210 12.091808 11.616065 -32.188985 -3.354999 -5.069898 -16.615895 -3.130013 24.780417 1.392872 3.793516 48.773515 1.530012 6.484101 -20.209981 37.396944 -14.555133 4.062808 15.517310 0.566778 
-37.612301 67.764397 90.392944 -92.242827 -3.809131 85.747152 11.725297 7.660415 -4.019205 -5.903943 0.675077 25.969308 1.601505 13.951418 -11.551284 nan nan nan -10.913661 -8.611284 -4.688138 2.069509 -9.046740 26.040936 0.954784 -9.810500 -18.328964 nan nan nan -1.692638 2.151051 4.642966 3.424392 -4.504087 16.178818 1.162080 -0.212319 -5.245173 2.850585 20.921548 11.856315 -5.336282 19.890970 1.709221 -27.277399 2.960369 1.650960 -52.525223 -2.211311 12.203118 11.598177 -32.363211 -3.493082 -4.677534 -16.694528 -3.377240 24.876850 1.209033 3.776761 48.850747 1.574260 6.448502 -20.248616 37.643222 -14.670638 4.092732 15.480638 0.700345 
-37.538006 67.750481 90.370934 -91.597839 -3.800614 85.859625 11.672958 7.482692 -4.409243 -5.929279 0.464876 25.995282 1.701498 13.909720 -11.521356 nan nan nan -10.990599 -8.522169 -4.633755 2.178948 -8.528138 25.971010 1.114114 -9.366347 -18.684612 nan nan nan -1.546839 2.239199 4.625411 3.338249 -4.520938 16.236916 1.145072 -0.217360 -5.262519 2.796103 21.832127 11.883486 -5.388224 20.899867 1.773132 -27.296501 2.912242 1.498900 -52.579623 -2.056532 12.335251 11.676421 -32.532347 -3.651372 -4.477673 -16.539816 -3.210486 24.873294 1.054015 3.716638 48.897488 1.580453 6.683848 -20.248619 37.950018 -14.668289 4.071295 15.495504 0.598180 
-37.454433 67.733749 90.359207 -90.914365 -3.793305 85.917876 11.612788 7.247386 -4.744353 -5.984784 0.212227 26.023428 1.794802 13.777262 -11.577819 nan nan nan -11.063441 -8.420690 -4.489132 2.264750 -8.004025 25.865426 1.227322 -8.963814 -18.861440 nan nan nan -1.413228 2.359839 4.673277 3.297057 -4.561646 16.402263 1.136595 -0.298373 -5.438479 2.740339 22.766515 11.926158 -5.437926 21.626107 1.986153 -27.286460 2.876982 1.507036 -52.672339 -2.077640 12.372156 11.743604 -32.570153 -3.687219 -4.682660 -16.553515 -3.084273 24.832879 1.021735 3.849118 48.911629 1.641393 6.931017 -20.237856 38.140924 -14.684187 4.173351 15.546280 0.468787 
-37.360901 67.729797 90.343277 -90.194788 -3.808877 85.996803 11.531800 6.987553 -5.118022 -6.021696 -0.018044 26.028066 1.840341 13.554315 -11.613222 nan nan nan -11.125830 -8.257019 -4.382888 2.257575 -7.657554 25.764464 1.318649 -8.709795 -19.020805 nan nan nan -1.310071 2.430736 4.790000 3.242975 -4.613112 16.303131 1.130746 -0.347857 -5.414565 2.606091 23.586141 11.948192 -5.475885 22.239806 2.055906 -27.260628 2.849251 1.482995 -52.753785 -2.081691 12.373796 11.703683 -32.518219 -3.704582 -4.681921 -16.929295 -3.229206 24.871099 0.976995 3.965257 48.936915 1.731992 7.012866 -20.283089 38.231266 -14.623997 4.480473 15.689824 0.467813 
